<svg width="385" height="134" viewBox="0 0 385 134" fill="none" xmlns="http://www.w3.org/2000/svg">
<path d="M67 116.572C94.336 116.572 116.572 94.336 116.572 67C116.572 39.664 94.336 17.428 67 17.428C39.664 17.428 17.428 39.664 17.428 67L67 116.572Z" fill="url(#paint0_linear)"/>
<path d="M47.0081 73.324V96.58L67.0001 116.572V70.774L47.0081 73.324Z" fill="white"/>
<path d="M79.954 77.302L67 70.774V116.572C71.488 116.572 75.772 115.96 79.954 114.838V77.302Z" fill="#EDEFF2"/>
<path d="M53.6379 63.226L84.1359 45.07L91.2759 48.64L60.7779 66.796L53.6379 63.226Z" fill="#DB9106"/>
<path d="M53.6379 50.782L84.1359 45.07L53.6379 63.226V50.782Z" fill="#FFCA04"/>
<path d="M67 17.428C94.336 17.428 116.572 39.664 116.572 67C116.572 94.336 94.336 116.572 67 116.572L17.428 67C17.428 39.664 39.664 17.428 67 17.428ZM67 16C38.848 16 16 38.848 16 67V67.612L16.408 68.02L65.98 117.592L66.388 118H67C95.152 118 118 95.152 118 67C118 38.848 95.152 16 67 16Z" fill="#112036"/>
<path d="M150.88 60H157.648V32.496H165.472V26.4H143.008V32.496H150.88V60ZM176.151 60.624C179.415 60.624 181.815 58.8 182.871 57.072V60H189.351V34.896H182.727V49.968C182.727 52.656 180.999 54.672 178.263 54.672C176.007 54.672 174.087 52.944 174.087 50.16V34.896H167.463V49.392C167.463 54.72 168.999 60.624 176.151 60.624ZM207.526 34.272C204.262 34.272 201.862 36.096 200.806 37.824V34.896H194.326V60H200.95V44.928C200.95 42.24 202.678 40.224 205.414 40.224C207.67 40.224 209.59 41.952 209.59 44.736V60H216.214V45.504C216.214 40.176 214.678 34.272 207.526 34.272ZM223.01 66.912C225.266 68.16 228.77 69.216 232.226 69.216C239.618 69.216 245.714 66.192 245.714 56.832V34.896H239.474V37.536C238.754 36.576 236.21 34.272 231.986 34.272C224.834 34.272 219.746 39.744 219.746 47.472C219.746 55.2 224.498 60.624 231.746 60.624C236.114 60.624 238.562 58.128 239.09 57.408V58.56C239.09 62.448 235.778 63.552 232.178 63.552C228.722 63.552 225.842 62.256 225.026 61.824L223.01 66.912ZM239.282 47.424C239.282 51.888 236.69 54.768 232.85 54.768C229.106 54.768 226.418 51.84 226.418 47.424C226.418 43.008 229.058 40.128 232.802 40.128C236.69 40.128 239.282 43.152 239.282 47.424ZM252.541 66.912C254.797 68.16 258.301 69.216 261.757 69.216C269.149 69.216 275.245 66.192 275.245 56.832V34.896H269.005V37.536C268.285 36.576 265.741 34.272 261.517 34.272C254.365 34.272 249.277 39.744 249.277 47.472C249.277 55.2 254.029 60.624 261.277 60.624C265.645 60.624 268.093 58.128 268.621 57.408V58.56C268.621 62.448 265.309 63.552 261.709 63.552C258.253 63.552 255.373 62.256 254.557 61.824L252.541 66.912ZM268.813 47.424C268.813 51.888 266.221 54.768 262.381 54.768C258.637 54.768 255.949 51.84 255.949 47.424C255.949 43.008 258.589 40.128 262.333 40.128C266.221 40.128 268.813 43.152 268.813 47.424ZM278.808 52.224C278.808 57.504 283.128 60.624 288.216 60.624C291.096 60.624 293.016 59.76 294.312 58.368L294.744 60H300.6V44.112C300.6 38.496 298.2 34.272 290.136 34.272C286.296 34.272 282.504 35.712 280.248 37.248L282.744 41.76C284.616 40.8 286.92 39.984 289.416 39.984C292.344 39.984 293.976 41.472 293.976 43.68V45.312C293.064 44.688 291.096 43.92 288.552 43.92C282.696 43.92 278.808 47.28 278.808 52.224ZM285.432 52.032C285.432 49.968 287.208 48.528 289.752 48.528C292.296 48.528 294.12 49.824 294.12 52.032C294.12 54.144 292.296 55.488 289.8 55.488C287.304 55.488 285.432 54.096 285.432 52.032ZM305.514 60H312.138V25.296H305.514V60Z" fill="#121212"/>
<path d="M161.584 77.972H158.704V88.304C158.164 87.332 156.004 84.812 152.116 84.812C146.788 84.812 143.188 88.916 143.188 94.676C143.188 100.4 146.968 104.468 152.332 104.468C156.4 104.468 158.344 101.732 158.812 101.048V104H161.584V77.972ZM158.812 94.712C158.812 98.636 156.4 101.912 152.476 101.912C148.876 101.912 146.104 99.068 146.104 94.712C146.104 90.428 148.768 87.404 152.44 87.404C155.932 87.404 158.812 90.068 158.812 94.712ZM165.267 94.712C165.267 100.472 169.191 104.468 174.879 104.468C179.127 104.468 181.575 102.164 182.619 100.4L180.747 99.032C179.847 100.292 178.083 101.948 174.915 101.948C171.027 101.948 168.219 99.428 168.183 95.252H183.195C183.231 94.892 183.231 94.496 183.231 94.388C183.231 88.772 179.847 84.812 174.339 84.812C169.371 84.812 165.267 88.736 165.267 94.712ZM168.327 93.128C168.543 89.6 171.279 87.26 174.339 87.26C177.435 87.26 180.135 89.24 180.315 93.128H168.327ZM185.442 100.472C186.27 102.236 188.034 104.468 191.958 104.468C195.594 104.468 198.33 102.236 198.33 98.924C198.33 92.408 188.898 93.992 188.898 89.78C188.898 88.16 190.266 87.188 191.994 87.188C194.406 87.188 195.378 88.592 195.882 89.6L197.97 88.412C197.466 87.008 195.666 84.812 192.174 84.812C188.79 84.812 186.162 86.72 186.162 89.888C186.162 96.224 195.558 94.748 195.558 99.068C195.558 100.976 193.974 102.056 192.102 102.056C189.546 102.056 188.214 100.652 187.422 99.176L185.442 100.472ZM201.858 104H204.702V85.28H201.858V104ZM201.318 80.456C201.318 81.572 202.182 82.436 203.262 82.436C204.378 82.436 205.242 81.572 205.242 80.456C205.242 79.376 204.378 78.512 203.262 78.512C202.182 78.512 201.318 79.376 201.318 80.456ZM210.601 109.04C212.221 110.048 214.849 110.912 217.297 110.912C222.697 110.912 226.693 108.5 226.693 101.408V85.28H223.957V88.304C223.345 87.296 221.221 84.812 217.333 84.812C212.041 84.812 208.333 88.916 208.333 94.676C208.333 100.4 212.005 104.468 217.369 104.468C221.473 104.468 223.417 101.732 223.849 101.048V102.704C223.849 106.88 220.825 108.356 217.261 108.356C214.561 108.356 212.329 107.24 211.609 106.808L210.601 109.04ZM223.957 94.676C223.957 98.708 221.473 101.876 217.621 101.876C214.021 101.876 211.213 99.032 211.213 94.676C211.213 90.392 213.913 87.404 217.549 87.404C221.113 87.404 223.957 90.14 223.957 94.676ZM239.848 84.812C237.256 84.812 235.168 86.288 234.268 87.98V85.28H231.46V104H234.304V92.624C234.304 89.528 236.284 87.404 239.164 87.404C241.72 87.404 243.592 89.204 243.592 92.192V104H246.436V92.3C246.436 88.052 244.204 84.812 239.848 84.812ZM258.919 100.472C259.747 102.236 261.511 104.468 265.435 104.468C269.071 104.468 271.807 102.236 271.807 98.924C271.807 92.408 262.375 93.992 262.375 89.78C262.375 88.16 263.743 87.188 265.471 87.188C267.883 87.188 268.855 88.592 269.359 89.6L271.447 88.412C270.943 87.008 269.143 84.812 265.651 84.812C262.267 84.812 259.639 86.72 259.639 89.888C259.639 96.224 269.035 94.748 269.035 99.068C269.035 100.976 267.451 102.056 265.579 102.056C263.023 102.056 261.691 100.652 260.899 99.176L258.919 100.472ZM280.879 110.444L290.923 85.28H287.899L282.139 100.328L276.199 85.28H273.103L280.735 103.82L278.035 110.444H280.879ZM292.212 100.472C293.04 102.236 294.804 104.468 298.728 104.468C302.364 104.468 305.1 102.236 305.1 98.924C305.1 92.408 295.668 93.992 295.668 89.78C295.668 88.16 297.036 87.188 298.764 87.188C301.176 87.188 302.148 88.592 302.652 89.6L304.74 88.412C304.236 87.008 302.436 84.812 298.944 84.812C295.56 84.812 292.932 86.72 292.932 89.888C292.932 96.224 302.328 94.748 302.328 99.068C302.328 100.976 300.744 102.056 298.872 102.056C296.316 102.056 294.984 100.652 294.192 99.176L292.212 100.472ZM308.844 85.28H306.648V87.692H308.844V97.592C308.844 101.804 310.464 104.252 314.208 104.252C315.18 104.252 315.936 104.144 315.936 104.144V101.624C315.936 101.624 315.504 101.66 315.144 101.66C312.696 101.66 311.688 100.832 311.688 97.34V87.692H315.792V85.28H311.688V81.356H308.844V85.28ZM318.021 94.712C318.021 100.472 321.945 104.468 327.633 104.468C331.881 104.468 334.329 102.164 335.373 100.4L333.501 99.032C332.601 100.292 330.837 101.948 327.669 101.948C323.781 101.948 320.973 99.428 320.937 95.252H335.949C335.985 94.892 335.985 94.496 335.985 94.388C335.985 88.772 332.601 84.812 327.093 84.812C322.125 84.812 318.021 88.736 318.021 94.712ZM321.081 93.128C321.297 89.6 324.033 87.26 327.093 87.26C330.189 87.26 332.889 89.24 333.069 93.128H321.081ZM365.772 91.868C365.772 87.764 363.54 84.812 359.364 84.812C356.7 84.812 354.468 86 353.352 88.232C352.488 86.18 350.508 84.812 347.7 84.812C345.108 84.812 343.128 86.36 342.408 87.98C342.408 87.98 342.408 87.008 342.408 85.28H339.6V104H342.444V92.66C342.444 89.492 344.496 87.404 346.98 87.404C349.608 87.404 351.264 89.204 351.264 92.192V104H354.108V92.768C354.108 89.276 356.088 87.404 358.716 87.404C361.488 87.404 362.928 89.204 362.928 92.732V104H365.772V91.868Z" fill="#525252"/>
<defs>
<linearGradient id="paint0_linear" x1="109.343" y1="37.5151" x2="33.1828" y2="83.4308" gradientUnits="userSpaceOnUse">
<stop stop-color="#134376"/>
<stop offset="1" stop-color="#092C52"/>
</linearGradient>
</defs>
</svg>
